/* XPM */
static char *wall_east_xpm[] = {
"10 10 3 1",
"  c #6E8A6E",  // mossy green
". c #4F6E4F",  // deeper moss
"# c #3C4D3C",  // cracks/dirt
".#.#.#.#.#",
"#.#.#.#.#.",
".#.#.#.#.#",
"#.#.#.#.#.",
".#.#.#.#.#",
"#.#.#.#.#.",
".#.#.#.#.#",
"#.#.#.#.#.",
".#.#.#.#.#",
"#.#.#.#.#."
};
