/* XPM */
static char *sprite_xpm[] = {
"64 64 675 2",
"aa c None",
"ab c #1e1f1e",
"ac c #1f1f1f",
"ad c #1f1f1d",
"ae c #1f1f20",
"af c #1c1e1e",
"ag c #374658",
"ah c #354759",
"ai c #1d1f1e",
"aj c #1e1e1f",
"ak c #354758",
"al c #354659",
"am c #1f211f",
"an c #1e201e",
"ao c #1f2020",
"ap c #1a1719",
"aq c #354556",
"ar c #364656",
"as c #1d1c1e",
"at c #1c1c1c",
"au c #1f1d1d",
"av c #201f1e",
"aw c #1d2020",
"ax c #1d1e1e",
"ay c #1e1e1e",
"az c #1e1e1d",
"aA c #1f201d",
"aB c #1e211f",
"aC c #1f211d",
"aD c #1e201f",
"aE c #1e1d1e",
"aF c #1f1e1c",
"aG c #1c201d",
"aH c #1d1d1f",
"aI c #1c1e1d",
"aJ c #1d1f1d",
"aK c #1c1d1c",
"aL c #1e1e1c",
"aM c #1d1e1c",
"aN c #1e1f1d",
"aO c #1c1e1c",
"aP c #1d1e1b",
"aQ c #1d1d1d",
"aR c #1e1d1c",
"aS c #1c1f1c",
"aT c #1d1d1b",
"aU c #1d1e1d",
"aV c #1b1e1e",
"aW c #1c1d1d",
"aX c #1c1c1b",
"aY c #959698",
"aZ c #959597",
"a0 c #bbbabc",
"a1 c #bbb9bb",
"a2 c #bcbabb",
"a3 c #bababa",
"a4 c #bbbbb9",
"a5 c #bcbbb9",
"a6 c #bababb",
"a7 c #bcbcbb",
"a8 c #bdbcbb",
"a9 c #bcbbba",
"ba c #bbbabb",
"bb c #bbbcba",
"bc c #bcbaba",
"bd c #babcb9",
"be c #bbbbbb",
"bf c #bbbbba",
"bg c #bcbcba",
"bh c #babcba",
"bi c #babbba",
"bj c #b9b8b7",
"bk c #959799",
"bl c #979999",
"bm c #1e1f1f",
"bn c #959699",
"bo c #959798",
"bp c #b9baba",
"bq c #babbbb",
"br c #babbb9",
"bs c #babab9",
"bt c #bab9ba",
"bu c #bbbcb9",
"bv c #b9bcbb",
"bw c #bbbaba",
"bx c #b9b9ba",
"by c #bbb9ba",
"bz c #b9bbb9",
"bA c #bbbbb8",
"bB c #b9b9bb",
"bC c #b9bab9",
"bD c #969698",
"bE c #969899",
"bF c #1f1e1f",
"bG c #97989a",
"bH c #bbb9bc",
"bI c #bcbbbc",
"bJ c #babbb8",
"bK c #bab9bb",
"bL c #babbbc",
"bM c #bbbbbc",
"bN c #babcbb",
"bO c #bbbab9",
"bP c #bbb8b9",
"bQ c #bcbab9",
"bR c #98979a",
"bS c #96979b",
"bT c #1e211e",
"bU c #1f1e1e",
"bV c #959598",
"bW c #1d1c1d",
"bX c #1e1d1d",
"bY c #1d1b1e",
"bZ c #1d1c1c",
"b0 c #30302e",
"b1 c #bcbcbc",
"b2 c #96989a",
"b3 c #949899",
"b4 c #1f1e1d",
"b5 c #1d201d",
"b6 c #939599",
"b7 c #2e2a2c",
"b8 c #364757",
"b9 c #364756",
"ca c #354657",
"cb c #354857",
"cc c #374657",
"cd c #364357",
"ce c #374557",
"cf c #364758",
"cg c #384756",
"ch c #354557",
"ci c #374758",
"cj c #354558",
"ck c #354656",
"cl c #374655",
"cm c #334352",
"cn c #000000",
"co c #96979a",
"cp c #95999a",
"cq c #20201e",
"cr c #1f201e",
"cs c #1f1f1c",
"ct c #1c201e",
"cu c #1e1c1d",
"cv c #949497",
"cw c #969598",
"cx c #2c2a2a",
"cy c #364558",
"cz c #364657",
"cA c #262c33",
"cB c #252e32",
"cC c #293037",
"cD c #293035",
"cE c #262e35",
"cF c #344657",
"cG c #364858",
"cH c #252c32",
"cI c #272e33",
"cJ c #262f33",
"cK c #282f34",
"cL c #292c31",
"cM c #334354",
"cN c #969799",
"cO c #969898",
"cP c #1c1e1f",
"cQ c #1d1f1f",
"cR c #949699",
"cS c #949697",
"cT c #2b2c2b",
"cU c #384659",
"cV c #1d1d1e",
"cW c #374757",
"cX c #384557",
"cY c #344454",
"cZ c #1f1d1f",
"c0 c #1d1d1c",
"c1 c #212322",
"c2 c #324254",
"c3 c #000100",
"c4 c #95989a",
"c5 c #96999a",
"c6 c #1e1e20",
"c7 c #1e1f20",
"c8 c #334758",
"c9 c #2c2b2a",
"da c #354757",
"db c #1d1f1c",
"dc c #e9521c",
"dd c #e9521b",
"de c #201e1c",
"df c #374556",
"dg c #334358",
"dh c #e8511b",
"di c #212220",
"dj c #364658",
"dk c #324252",
"dl c #94979a",
"dm c #1f1d1e",
"dn c #1b1f1f",
"do c #293844",
"dp c #2b2c29",
"dq c #384657",
"dr c #364958",
"ds c #ea501d",
"dt c #e7511c",
"du c #283643",
"dv c #273542",
"dw c #273446",
"dx c #263643",
"dy c #20201d",
"dz c #e9501b",
"dA c #ea501b",
"dB c #202222",
"dC c #354454",
"dD c #000200",
"dE c #979799",
"dF c #273644",
"dG c #283441",
"dH c #1f1f1e",
"dI c #959898",
"dJ c #949796",
"dK c #2b2a29",
"dL c #1f1e1a",
"dM c #e9511d",
"dN c #e8501d",
"dO c #263544",
"dP c #263442",
"dQ c #26313e",
"dR c #25313f",
"dS c #283543",
"dT c #253340",
"dU c #1e1f1c",
"dV c #e7501d",
"dW c #e8521a",
"dX c #202121",
"dY c #334252",
"dZ c #94999a",
"d0 c #293645",
"d1 c #95979a",
"d2 c #969596",
"d3 c #2b2b2a",
"d4 c #364857",
"d5 c #1c201f",
"d6 c #1c1d1e",
"d7 c #273443",
"d8 c #263644",
"d9 c #263443",
"ea c #273643",
"eb c #273543",
"ec c #253240",
"ed c #1c1f1e",
"ee c #1b1f1d",
"ef c #1e1d1f",
"eg c #212323",
"eh c #364456",
"ei c #334153",
"ej c #97979a",
"ek c #1e2020",
"el c #0e0f12",
"em c #0b0d0e",
"en c #949596",
"eo c #243643",
"ep c #273444",
"eq c #273343",
"er c #273744",
"es c #283645",
"et c #273545",
"eu c #263444",
"ev c #253442",
"ew c #263543",
"ex c #273642",
"ey c #253443",
"ez c #000001",
"eA c #0c0f0f",
"eB c #0c0f11",
"eC c #96969a",
"eD c #020000",
"eE c #2c3e54",
"eF c #2b3e55",
"eG c #293b50",
"eH c #2b3d52",
"eI c #2b3e54",
"eJ c #2b3d53",
"eK c #2a3e54",
"eL c #2b3f54",
"eM c #2c4055",
"eN c #283d54",
"eO c #293d53",
"eP c #2c3f52",
"eQ c #293d50",
"eR c #3b4756",
"eS c #979898",
"eT c #969697",
"eU c #030200",
"eV c #bcbcb9",
"eW c #989998",
"eX c #959999",
"eY c #1e211c",
"eZ c #1e1c1e",
"e0 c #969599",
"e1 c #bbbcbb",
"e2 c #bcbbbb",
"e3 c #bcbdbc",
"e4 c #bcbbbd",
"e5 c #bdbbbb",
"e6 c #babdbb",
"e7 c #bcbabc",
"e8 c #bcbcbd",
"e9 c #bdbbbd",
"fa c #bcbdbd",
"fb c #bdbabc",
"fc c #babdbd",
"fd c #bbbabd",
"fe c #babcbc",
"ff c #bdbbbc",
"fg c #bdbbba",
"fh c #96989b",
"fi c #1f1e20",
"fj c #949698",
"fk c #959899",
"fl c #979899",
"fm c #969699",
"fn c #97999b",
"fo c #979798",
"fp c #959797",
"fq c #949798",
"fr c #201e1e",
"fs c #1d1f20",
"ft c #1e201d",
"fu c #1f201f",
"fv c #201f1f",
"fw c #1f211e",
"fx c #201f1d",
"fy c #20211e",
"fz c #20201f",
"fA c #1f221f",
"fB c #1d211f",
"fC c #37485b",
"fD c #374656",
"fE c #354856",
"fF c #0e0b07",
"fG c #38485b",
"fH c #344758",
"fI c #364458",
"fJ c #344658",
"fK c #344458",
"fL c #0c0704",
"fM c #201f20",
"fN c #1c1f20",
"fO c #1c1f1f",
"fP c #212120",
"fQ c #babdbc",
"fR c #939597",
"fS c #919395",
"fT c #bdbdbd",
"fU c #bbbdbd",
"fV c #bcbcbe",
"fW c #bdbdc0",
"fX c #bdbdbb",
"fY c #bdbdbc",
"fZ c #bebbbc",
"f0 c #bcbdbb",
"f1 c #bdbcbc",
"f2 c #949897",
"f3 c #bcbdbe",
"f4 c #202122",
"f5 c #232121",
"f6 c #bbbdbc",
"f7 c #959499",
"f8 c #929496",
"f9 c #bbbcbc",
"ga c #bdbcbd",
"gb c #bbbbbd",
"gc c #bcbebd",
"gd c #212221",
"ge c #b9bbbc",
"gf c #211f1f",
"gg c #20221f",
"gh c #bbbcbe",
"gi c #bdbebc",
"gj c #bdbdbe",
"gk c #bebdbe",
"gl c #bdbfc0",
"gm c #bfbebf",
"gn c #bebebe",
"go c #bebfbf",
"gp c #c0c0bf",
"gq c #bdbebd",
"gr c #bebebf",
"gs c #bdbebf",
"gt c #c0bdbf",
"gu c #bebebc",
"gv c #bdbdbf",
"gw c #bebcbd",
"gx c #bebdbf",
"gy c #bdbebe",
"gz c #bcbcbf",
"gA c #939398",
"gB c #909294",
"gC c #bebfbe",
"gD c #202020",
"gE c #202021",
"gF c #20211f",
"gG c #95979b",
"gH c #1d1e1f",
"gI c #1d201e",
"gJ c #95989b",
"gK c #98989a",
"gL c #243343",
"gM c #364755",
"gN c #374456",
"gO c #374857",
"gP c #35465a",
"gQ c #364659",
"gR c #354858",
"gS c #334558",
"gT c #263445",
"gU c #263542",
"gV c #1e211d",
"gW c #1c211f",
"gX c #181916",
"gY c #98989c",
"gZ c #97989b",
"g0 c #253444",
"g1 c #253643",
"g2 c #344558",
"g3 c #334757",
"g4 c #344757",
"g5 c #354859",
"g6 c #334659",
"g7 c #979a9c",
"g8 c #161717",
"g9 c #1b201e",
"ha c #1e201c",
"hb c #8e8f90",
"hc c #919397",
"hd c #bebdbc",
"he c #bebebd",
"hf c #bebbbd",
"hg c #959599",
"hh c #909194",
"hi c #9a9b9d",
"hj c #211f1e",
"hk c #959697",
"hl c #bbbcbd",
"hm c #bcbabd",
"hn c #bbbebc",
"ho c #bdbcbe",
"hp c #bcbebe",
"hq c #989a9b",
"hr c #989d9d",
"hs c #b1b0b0",
"ht c #949598",
"hu c #2d2c29",
"hv c #1e221f",
"hw c #ababa9",
"hx c #2b2929",
"hy c #000021",
"hz c #020021",
"hA c #010023",
"hB c #000023",
"hC c #000022",
"hD c #000024",
"hE c #060120",
"hF c #bcbebb",
"hG c #95999b",
"hH c #1d2120",
"hI c #bcbdba",
"hJ c #2f2c29",
"hK c #f2771b",
"hL c #f4791b",
"hM c #f2781c",
"hN c #f3781c",
"hO c #f27618",
"hP c #f1781b",
"hQ c #f3791b",
"hR c #f2791c",
"hS c #f47719",
"hT c #f17519",
"hU c #201e20",
"hV c #21221e",
"hW c #252425",
"hX c #1f2121",
"hY c #212320",
"hZ c #95969a",
"h0 c #949597",
"h1 c #2c2d2a",
"h2 c #f3771a",
"h3 c #1f2120",
"h4 c #f1771b",
"h5 c #f4771a",
"h6 c #f3761a",
"h7 c #f4751a",
"h8 c #201e21",
"h9 c #95969b",
"ia c #22211f",
"ib c #1e2120",
"ic c #262626",
"id c #21211f",
"ie c #949498",
"if c #bcbdb9",
"ig c #2a2a29",
"ih c #f1761a",
"ii c #aa501d",
"ij c #aa4e1d",
"ik c #f2761a",
"il c #f27619",
"im c #b2531e",
"in c #ab4e1c",
"io c #f3761b",
"ip c #b8bbba",
"iq c #252828",
"ir c #939497",
"is c #bcbbbf",
"it c #bcbdbf",
"iu c #2a2b29",
"iv c #ea4c1c",
"iw c #ea4f1c",
"ix c #e94c1d",
"iy c #e94d1b",
"iz c #ec4e1b",
"iA c #eb4e1b",
"iB c #eb4e1c",
"iC c #e94d1c",
"iD c #eb501b",
"iE c #ee4e1c",
"iF c #bdbbbe",
"iG c #929295",
"iH c #212021",
"iI c #222625",
"iJ c #212121",
"iK c #98999c",
"iL c #77797d",
"iM c #78797a",
"iN c #989798",
"iO c #2b2927",
"iP c #e94f1b",
"iQ c #eb4f1c",
"iR c #ea4f1d",
"iS c #e94e1b",
"iT c #e84e1c",
"iU c #ea4e1c",
"iV c #7b7a7d",
"iW c #797b7a",
"iX c #222022",
"iY c #9a9a9b",
"iZ c #99999d",
"i0 c #96999b",
"i1 c #212223",
"i2 c #222121",
"i3 c #7a787a",
"i4 c #79787b",
"i5 c #292928",
"i6 c #e84f1d",
"i7 c #ea511c",
"i8 c #e9501d",
"i9 c #ea4e1b",
"ja c #e94e1c",
"jb c #ea4f1a",
"jc c #7a7a7c",
"jd c #7a7b7c",
"je c #97999c",
"jf c #969797",
"jg c #232424",
"jh c #141315",
"ji c #2c2a2c",
"jj c #2e2c2c",
"jk c #2e2c2d",
"jl c #2d2c2b",
"jm c #2f2e2b",
"jn c #2c2b2c",
"jo c #221f1f",
"jp c #382623",
"jq c #352622",
"jr c #342721",
"js c #362821",
"jt c #352822",
"ju c #392722",
"jv c #332723",
"jw c #36271f",
"jx c #352621",
"jy c #352722",
"jz c #1f2220",
"jA c #2b2c2a",
"jB c #2c2d2d",
"jC c #2e2d2e",
"jD c #2b282a",
"jE c #2f2d2c",
"jF c #2c2f2b",
"jG c #2d2829",
"jH c #181918",
"jI c #202120",
"jJ c #21201d",
"jK c #21201e",
"jL c #211f1d",
"jM c #222321",
"jN c #37475a",
"jO c #384658",
"jP c #97989c",
"jQ c #98979b",
"jR c #999699",
"jS c #98999b",
"jT c #8c8d8f",
"jU c #384857",
"jV c #3c5062",
"jW c #364759",
"jX c #394a5f",
"jY c #afafaf",
"jZ c #100904",
"j0 c #374859",
"j1 c #3d5163",
"j2 c #1e221e",
"j3 c #37475b",
"j4 c #394b5d",
"j5 c #364859",
"j6 c #1f2021",
"j7 c #afafb0",
"j8 c #0f0a06",
"j9 c #3d5162",
"ka c #37495b",
"kb c #babbbd",
"kc c #bbbdbb",
"kd c #b3b2b3",
"ke c #3c4f62",
"kf c #151616",
"kg c #201e1f",
"kh c #161514",
"ki c #171415",
"kj c #131516",
"kk c #121414",
"kl c #141113",
"km c #1a1918",
"kn c #191919",
"ko c #121213",
"kp c #141414",
"kq c #141514",
"kr c #151514",
"ks c #1e1d1b",
"kt c #98969b",
"ku c #989a9c",
"kv c #1f1f21",
"kw c #191b1a",
"kx c #99999b",
"ky c #999a9d",
"kz c #989a9a",
"kA c #99999c",
"kB c #354658",
"kC c #374558",
"kD c #374659",
"kE c #20211d",
"kF c #191918",
"kG c #384656",
"kH c #354655",
"kI c #394c5e",
"kJ c #3b4e60",
"kK c #3d5065",
"kL c #394c5d",
"kM c #1a191c",
"kN c #394e60",
"kO c #3a4d60",
"kP c #394c5f",
"kQ c #191b18",
"kR c #334253",
"kS c #201f1c",
"kT c #0f1110",
"kU c #384957",
"kV c #384757",
"kW c #374759",
"kX c #171817",
"kY c #394659",
"kZ c #36485a",
"k0 c #344755",
"k1 c #1a171c",
"k2 c #0b0f0e",
"aaaaaaaaaaaaaaaaaaaaaaaaaaaaaaaaaaaaaaaaaaaaaaaaaaaaaaaaaaaaaaaaaaaaaaaaaaaaaaaaaaaaaaaaaaaaaaaaaaaaaaaaaaaaaaaaaaaaaaaaaaaaaaaa",
"aaaaaaaaaaaaaaaaaaaaaaaaaaaaaaaaaaaaaaaaaaaaaaaaaaaaaaaaaaaaaaabacaaaaaaaaaaaaaaaaaaaaaaaaaaaaaaaaaaaaaaaaaaaaaaaaaaaaaaaaaaaaaa",
"aaaaaaaaaaaaaaaaaaaaaaaaaaaaaaaaaaaaaaaaaaaaaaaaaaaaaaaaaaaaaaadaeaaaaaaaaaaaaaaaaaaaaaaaaaaaaaaaaaaaaaaaaaaaaaaaaaaaaaaaaaaaaaa",
"aaaaaaaaaaaaaaaaaaaaaaaaaaaaaaaaaaaaaaaaaaaaaaaaaaaaaaaaaaabafagahabaiaaaaaaaaaaaaaaaaaaaaaaaaaaaaaaaaaaaaaaaaaaaaaaaaaaaaaaaaaa",
"aaaaaaaaaaaaaaaaaaaaaaaaaaaaaaaaaaaaaaaaaaaaaaaaaaaaaaaaaaaiajakalamanaaaaaaaaaaaaaaaaaaaaaaaaaaaaaaaaaaaaaaaaaaaaaaaaaaaaaaaaaa",
"aaaaaaaaaaaaaaaaaaaaaaaaaaaaaaaaaaaaaaaaaaaaaaaaaaaaaaaaaaaoapaqarasataaaaaaaaaaaaaaaaaaaaaaaaaaaaaaaaaaaaaaaaaaaaaaaaaaaaaaaaaa",
"aaaaaaaaaaaaaaaaaaaaaaaaaaaaaaaaaaaaaaaaaaaaaaaaaaaaaaaaaaaaaaauaiaaaaaaaaaaaaaaaaaaaaaaaaaaaaaaaaaaaaaaaaaaaaaaaaaaaaaaaaaaaaaa",
"aaaaaaaaaaaaaaaaaaaaaaaaaaaaaaaaaaaaaaaaaaaaaaaaaaaaaaaaaaaaaaavawaaaaaaaaaaaaaaaaaaaaaaaaaaaaaaaaaaaaaaaaaaaaaaaaaaaaaaaaaaaaaa",
"aaaaaaaaaaaaaaaaaaaaaaaaaaaaaaaaaaaaaaaaaaaaaaaaaaaaaaaaaaaaaaajajaaaaaaaaaaaaaaaaaaaaaaaaaaaaaaaaaaaaaaaaaaaaaaaaaaaaaaaaaaaaaa",
"aaaaaaaaaaaaaaaaaaaaaaaaaaaaaaaaaaaaaaaxaxayabazaAayanadaeabaBaCaDaEababanaFaGayaEayabadaFaaaaaaaaaaaaaaaaaaaaaaaaaaaaaaaaaaaaaa",
"aaaaaaaaaaaaaaaaaaaaaaaaaaaaaaaaaaaaaaaHafaIaJaKafaLaMaNazaOaxaPaQaOaRaSaTaUaVabaWaIaXaTaFaaaaaaaaaaaaaaaaaaaaaaaaaaaaaaaaaaaaaa",
"aaaaaaaaaaaaaaaaaaaaaaaaaaaaaaaaaaazaOaYaZa0a1a2a3a4a5a6a7a7a8a9babba5bcbdbebfbgbhbibjbkblbmayaaaaaaaaaaaaaaaaaaaaaaaaaaaaaaaaaa",
"aaaaaaaaaaaaaaaaaaaaaaaaaaaaaaaaaaanaPbnbobpbqbrbsa4a4btbubvbwbsbxbybsbibza3bsbAbBa3bCbDbEbFaNaaaaaaaaaaaaaaaaaaaaaaaaaaaaaaaaaa",
"aaaaaaaaaaaaaaaaaaaaaaaaaaaaaaaaaabmaEbGbobebwbibHbwa0baa3bIbabJbKbLbMbNbObwbPbwbwbebQbRbSbTbUaaaaaaaaaaaaaaaaaaaaaaaaaaaaaaaaaa",
"aaaaaaaaaaaaaaaaaaaaaaaaaaaaaaaaaaaFaLbVaYbIaLaxaUbWaQbXaQafaQazbYbZbXafafaWaQaKazb0b1b2b3b4b5aaaaaaaaaaaaaaaaaaaaaaaaaaaaaaaaaa",
"aaaaaaaaaaaaaaaaaaaaaaaaaaaaaaabaAanaLb6aZb7b8b9cab8cbcccdcecfcgcbchcicjckclb9b9b9cmcncocpcqcrcrcraaaaaaaaaaaaaaaaaaaaaaaaaaaaaa",
"aaaaaaaaaaaaaaaaaaaaaaaaaaaaaacsctbUcucvcwcxcyczcAcBcCcDcEcjcFczcichcGcHcIcJcKcLczcMcncNcOaxabayaxaaaaaaaaaaaaaaaaaaaaaaaaaaaaaa",
"aaaaaaaaaaaaaaaaaaaaaaaaaaaaaacPcfajcQcRcScTcicUaNaUascVaNcbcWcWcecXcYcZcVc0aNc1ccc2c3c4c5aoc6akc7aaaaaaaaaaaaaaaaaaaaaaaaaaaaaa",
"aaaaaaaaaaaaaaaaaaaaaaaaaaaaaacQc8c6aycwboc9dacGazdbdcdddechchdfakchdgaLdhddaMdidjdkcndlbodmaJalawaaaaaaaaaaaaaaaaaaaaaaaaaaaaaa",
"aaaaaaaaaaaaaaaaaaaaaaaaaaaaaadndobmcsaYaZdpdqdraLdbdsdtcududvarckdwdxdydzdAajdBcydCdDcodEc7abdFbFaaaaaaaaaaaaaaaaaaaaaaaaaaaaaa",
"aaaaaaaaaaaaaaaaaaaaaaaaaaaaaaaNdGdHaUdIdJdKdjdjaIdLdMdNaQdOdPdQdRdSdTdUdVdWdUdXb8dYcncNdZaGaUd0craaaaaaaaaaaaaaaaaaaaaaaaaaaaaa",
"aaaaaaaaaaaaaaaaaaaaaaaaaaaaaaaAavbmcVd1d2d3ard4d5d6aQaWaid7d8d9eaebecedaMeeefegeheic3bEejajaecQekaaaaaaaaaaaaaaaaaaaaaaaaaaaaaa",
"aaaaaaaaaaaaaaaaaaaaaaaaaaaaaaelemajaWbnenc9d0dFeod7epd7eqerdOesdxeteuevd7d9ewexeweyezdlbEajaUeAeBaaaaaaaaaaaaaaaaaaaaaaaaaaaaaa",
"aaaaaaaaaaaaaaaaaaaaaaaaaaaaaaaaaadHabeCaZeDeEeFeGeHeIeJeKeLeIeMeNeFeOeKePeLeQeLeJeRdDeSd1b5azaaaaaaaaaaaaaaaaaaaaaaaaaaaaaaaaaa",
"aaaaaaaaaaaaaaaaaaaaaaaaaaaaaaaaaaaNaRcNeTbeezezcncncncncnezcncncncncncncncncncncneUeVeWeXbFeYaaaaaaaaaaaaaaaaaaaaaaaaaaaaaaaaaa",
"aaaaaaaaaaaaaaaaaaaaaaaaaaaaaaaaaaaneZbne0e1e2e3e4e4e5e6e7e8e9e2fabIb1fbfcfdfebbe2fffgfhc5fiayaaaaaaaaaaaaaaaaaaaaaaaaaaaaaaaaaa",
"aaaaaaaaaaaaaaaaaaaaaaaaaaaaaaaaaabmaJfjbofkb2c4bkd1d1flbVbEcofmcOejfmfkfnfmbEfocNfpcNcNfqaDabaaaaaaaaaaaaaaaaaaaaaaaaaaaaaaaaaa",
"aaaaaaaaaaaaaaaaaaaaaaaaaaaaaaaaaac7aUfrdHdHdHbmcQfsbUftacfuaebTftfvfwfuacfxaxadabavfufyadc7ftaaaaaaaaaaaaaaaaaaaaaaaaaaaaaaaaaa",
"aaaaaaaaaaaaaaaaaaaaaaaaaaaaaaaaaacQbmbFaUancrabaNaccqdHfzfAacdHaDbmcrbmaDfBaDbmfuaecqfzfBanaKaaaaaaaaaaaaaaaaaaaaaaaaaaaaaaaaaa",
"aaaaaaaaaaaaaaaaaaaaaaaaaaaaaaaaaaaaaaaaaaaaaaaaaaaaaaacfCb9dacWcbfDfEfFdHaaaaaaaaaaaaaaaaaaaaaaaaaaaaaaaaaaaaaaaaaaaaaaaaaaaaaa",
"aaaaaaaaaaaaaaaaaaaaaaaaaaaaaaaaaaaaaaaaaaaaaaaaaaaaaaaNfGcFfHfIcjfJfKfLaxaaaaaaaaaaaaaaaaaaaaaaaaaaaaaaaaaaaaaaaaaaaaaaaaaaaaaa",
"aaaaaaaaaaaaaaaaaaaaaaaaaaaaayaybFaaaaaifMb4ajacbUabbFadaxajfsdHbUbmacfufNaiftabajaydHfvfOaaaaaNabaUaaaaaaaaaaaaaaaaaaaaaaaaaaaa",
"aaaaaaaaaaaaaaaaaaaaaaaafPbme3e3fQaccQfRfSb1e3e3fTe9fUe3fVb1fWfXfYfZf0b1e8f0f1fab1bIe4aYf2crekf3fYbdfvf4aaaaaaaaaaaaaaaaaaaaaaaa",
"aaaaaaaaaaaaaaaaaaaaaaaaf5b4e8b1f6ayaJf7f8e8f1f9gagbfTgcb1fae9fXbIf1a7f9bNfae3gcfegae9eCfjfugdfTfcgegfdXaaaaaaaaaaaaaaaaaaaaaaaa",
"aaaaaaaaaaaaaaaaaaaaaaaaggfvghgifcb4aLf8cof3b1gjgkgjgaglgmgngogpgqgrgsgtgugvgwgxgygzf9gAgBcrdigCgvfegDgEaaaaaaaaaaaaaaaaaaaaaaaa",
"aaaaaaaaaaaaaaaaaaaaaaaagFazgGbEgGabaxcVaxabgHaHaJaQayabdHcsdbdHfvaNfuawaxajaxaEgIbUazaUazftaogJgKcogDdXaaaaaaaaaaaaaaaaaaaaaaaa",
"aaaaaaaaaaaaaaaaaaaaaaaaamaybobEc4aeaigLeugMahdadjaqgNcbgOcfcGgPdjccdab9cfdjgQczchgRgSgTgUgVgWejcobnfzaiaaaaaaaaaaaaaaaaaaaaaaaa",
"aaaaaaaaaaaaaaaaaaaaaaaagXfufngYgZauaxg0g1cab9g2akakg3cGcjcFg4djgRahfJfJdacacfcag5gQg6ewecgVaQg7c5fjfPg8aaaaaaaaaaaaaaaaaaaaaaaa",
"aaaaaaaaaaaaaaaaaaaaaaaaaaaafvaxfuaxazg9abacfNacabaNfyayajdHc7hacraiaNaiajfrdHdHfOfvfMdHaibUefdHdyfuaaaaaaaaaaaaaaaaaaaaaaaaaaaa",
"aaaaaaaaaaaaaaaaaaaaaaaaaaaafMhbgZdHanbVhcbNgahde8hegcb1gjhdhdhfhdb1gngagkb1gnfYe3fabIbVhggfgEbGezaDaaaaaaaaaaaaaaaaaaaaaaaaaaaa",
"aaaaaaaaaaaaaaaaaaaaaaaaaaaabFhhhihjaNejhkhlhmhnfXb1hegchfgagCguhofTgifTgyhpgae3e3gqbec5hqfvgdhrcngVaaaaaaaaaaaaaaaaaaaaaaaaaaaa",
"aaaaaaaaaaaaaaaaaaaaaaaaaaaaachsf9fraAbkhtbfhle8hlhudHayacbUaDbFaBacaefzhvancnf3bIf9bMfkcpcrgFe2cnajaaaaaaaaaaaaaaaaaaaaaaaaaaaa",
"aaaaaaaaaaaaaaaaaaaaaaaaaaaadyhwb1bFbmbEhge1e3bMbIhxachyhzhAhAhBhChDhChBhEfzcnhFfUgabefhhGfshHfYezaNaaaaaaaaaaaaaaaaaaaaaaaaaaaa",
"aaaaaaaaaaaaaaaaaaaaaaaaaoc7fMbUavavcQfqcShIe7bqbahJachKhLhMhNhOhPhQhRhShThUcna7e2a9bLblfkftacdHacbFhVhWaaaaaaaaaaaaaaaaaaaaaaaa",
"aaaaaaaaaaaaaaaaaaaaaaaahXacavfPhYdHanhZh0bbbNa4a7h1achKh2h3anh4h5hjfMh6h7h8cnbMe8b1bbh9bGfufuiafwibgEicaaaaaaaaaaaaaaaaaaaaaaaa",
"aaaaaaaaaaaaaaaaaaaaaaaaidbmbLe5gagfaAfkiefQe3beifigfzihh2iiijikiliminioikdycnbeb1f6bIbEcNaAhXhmbaipfviqaaaaaaaaaaaaaaaaaaaaaaaa",
"aaaaaaaaaaaaaaaaaaaaaaaaandHe7bIe1bTaLbnire1isgaitiubUiviwixiyiziAiBiCiDiEbFcnbIiFbea0boiGaNiHgif9a3fziIaaaaaaaaaaaaaaaaaaaaaaaa",
"aaaaaaaaaaaaaaaaaaaaaaaaiJabcog7iKfrbXiLiMeCgGiNb3iOfxiyiCiPiQiAiRiSiSiTiUaecncococoboiViWcriXiYiZi0gFi1aaaaaaaaaaaaaaaaaaaaaaaa",
"aaaaaaaaaaaaaaaaaaaaaaaai2acb2bGb2frabi3i4d1bEgZgZi5bmi6i7i8iwiTiPiRi9jajbfvc3flbGejcojcjdacgFbRjejfacjgaaaaaaaaaaaaaaaaaaaaaaaa",
"aaaaaaaaaaaaaaaaaaaaaajhaDaejijjjkfwaNaaaacxjljmjnbFjojpjqjrjsjtjujvjwjxjyadjzjAjBjCjDaaaaaJaejEjFjGbUaxjHaaaaaaaaaaaaaaaaaaaaaa",
"aaaaaaaaaaaaaaaaaaaaaaacdUdHadb4anbUaDaaaah3dBjIggcqfufyavdHjJfrjKdmjLadjJfMidamjMaJfyaaaaaiaydyayazfxaUcraaaaaaaaaaaaaaaaaaaaaa",
"aaaaaaaaaaaaaaaaaaaaaafvjNb8djchjOcrhjaaaagDjPjQjejRjSfAibaaaaaaaaaaaabFhYjPfncOgYjTamaaaaaebmdacGb9jUjVamaaaaaaaaaaaaaaaaaaaaaa",
"aaaaaaaaaaaaaaaaaaaaaabFcGjWfsjXgQacftaaaadye7fdgqbabMacfzaaaaaaaaaaaaaodXbgb1a7bMjYggaaaaajaLd4jZaQj0j1j2aaaaaaaaaaaaaaaaaaaaaa",
"aaaaaaaaaaaaaaaaaaaaaadHj3cGayj4j5ayaAaaaaaeffa7f9a7gbfMfMaaaaaaaaaaaaadj6bIe7f9f6j7avaaaaaDgIcij8ayjNj9cqaaaaaaaaaaaaaaaaaaaaaa",
"aaaaaaaaaaaaaaaaaaaaaaadkaahavaJfiaDadaaaaaDb1hlb1a0kbacc7aaaaaaaaaaaafyjIbNfckcbMkdabaaaabTanbUbmaxfGkeamaaaaaaaaaaaaaaaaaaaaaa",
"aaaaaaaaaaaaaaaaaaaaaaaaaaaaaaaaaaaaaaaafzadgFfzaeaecrfuaAkfaaaaaaaafuftamkgfuaDekfvacgFaaaaaaaaaaaaaaaaaaaaaaaaaaaaaaaaaaaaaaaa",
"aaaaaaaaaaaaaaaaaaaaaaaaaaaaaaaaaaaaaaaabFcrkhkikjkkklkmdHknaaaaaaaaj2abkokfkpkqkqkracksaaaaaaaaaaaaaaaaaaaaaaaaaaaaaaaaaaaaaaaa",
"aaaaaaaaaaaaaaaaaaaaaaaaaaaaaaaaaaaaaaaabmcrjegKjefnktkukvkwaaaaaaaaackgbGkxkykzkAcNdUabaaaaaaaaaaaaaaaaaaaaaaaaaaaaaaaaaaaaaaaa",
"aaaaaaaaaaaaaaaaaaaaaaaaaaaaaaaaaaaaaaaacraAb8djkBkCkDfEkEkFaaaaaaaajIazfHckczkGczkHaedUaaaaaaaaaaaaaaaaaaaaaaaaaaaaaaaaaaaaaaaa",
"aaaaaaaaaaaaaaaaaaaaaaaaaaaaaaaaaaaaaaaaabaJkIkJkKkLarb8c7kMaaaaaaaajIaxfDcikIkNkOkPdHcQaaaaaaaaaaaaaaaaaaaaaaaaaaaaaaaaaaaaaaaa",
"aaaaaaaaaaaaaaaaaaaaaaaaaaaaaaaaaaaaaDafaNabbUcqazcQczczaDkQaaaaaaaabFacb9kRaAdHkSdHb4cuaikTaaaaaaaaaaaaaaaaaaaaaaaaaaaaaaaaaaaa",
"aaaaaaaaaaaaaaaaaaaaaaaaaaaaaaaaaaaaayabfDb8kUcckVkWjWczkvkXaaaaaaaafuaAcWcikYgRahczkZk0cqeAaaaaaaaaaaaaaaaaaaaaaaaaaaaaaaaaaaaa",
"aaaaaaaaaaaaaaaaaaaaaaaaaaaaaaaaaaaabmavdUanfifxaDb4dHacaek1aaaaaaaabTcQacfzacj2bTbFcsb4dek2aaaaaaaaaaaaaaaaaaaaaaaaaaaaaaaaaaaa",
"aaaaaaaaaaaaaaaaaaaaaaaaaaaaaaaaaaaaaaaaaaaaaaaaaaaaaaaaaaaaaaaaaaaaaaaaaaaaaaaaaaaaaaaaaaaaaaaaaaaaaaaaaaaaaaaaaaaaaaaaaaaaaaaa"
};
