/* XPM */
static char *wall_north_xpm[] = {
"10 10 3 1",
"  c #4A6A7A",  // bluish stone
". c #385866",  // shadow
"# c #2B3F4A",  // dark lines
"..........",
".##..##..#",
".##..##..#",
"..........",
"#..##..##.",
"#..##..##.",
"..........",
".##..##..#",
".##..##..#",
".........."
};
