/* XPM */
static char *wall_south_xpm[] = {
"10 10 3 1",
"  c #A66B3D",  // clay brown
". c #8C5A32",  // medium lines
"# c #6E4525",  // shadows
"..........",
"..####....",
"..####....",
"..........",
"....####..",
"....####..",
"..........",
"..####....",
"..####....",
".........."
};
