/* XPM */
static char *wall_west_xpm[] = {
"10 10 3 1",
"  c #5C3B1A",  // wood brown
". c #4A2E13",  // grain
"| c #321E0A",  // dark gap
"||||||||||",
".        .",
".        .",
"|        |",
".        .",
".        .",
"|        |",
".        .",
".        .",
"||||||||||"
};
